<?xml version="1.0" encoding="utf-8"?>
<!-- Generator: Adobe Illustrator 26.3.1, SVG Export Plug-In . SVG Version: 6.00 Build 0)  -->
<svg version="1.1" id="Layer_1" xmlns="http://www.w3.org/2000/svg" xmlns:xlink="http://www.w3.org/1999/xlink" x="0px" y="0px"
	 viewBox="0 0 16 16" style="enable-background:new 0 0 16 16;" xml:space="preserve">
<style type="text/css">
	.st0{fill-rule:evenodd;clip-rule:evenodd;fill:#3E2DE2;}
</style>
<path class="st0" d="M4.7,2L3.8,5.2v0.1C2.1,5.6,1,6,1,6.5C1,7.3,4.1,8,8,8s7-0.7,7-1.5c0-0.5-1.1-0.9-2.8-1.2c0,0,0,0,0-0.1L11.3,2
	c-0.1-0.5-0.7-0.8-1.2-0.7C9.4,1.4,8.6,1.5,8,1.5S6.6,1.4,6,1.2C5.4,1.1,4.9,1.4,4.7,2z M4.8,5.8c0-0.1,0.1-0.2,0.3-0.2l0,0
	C6,5.7,7,5.7,8.1,5.7c1,0,2,0,3-0.1c0.1,0,0.3,0.1,0.3,0.2S11.2,6.1,11,6.1c-0.9,0.1-1.9,0.1-3,0.1s-2.1,0-3-0.1
	C4.8,6.1,4.7,6,4.8,5.8L4.8,5.8z M3.5,10h2C5.8,10,6,10.2,6,10.5v1C6,12.3,5.3,13,4.5,13S3,12.3,3,11.5v-1C3,10.2,3.2,10,3.5,10z
	 M2,10.5c0-0.2,0-0.3,0.1-0.5H2c-0.3,0-0.5-0.2-0.5-0.5S1.7,9,2,9h3.5C6.3,9,6.9,9.6,7,10.3c0.7-0.2,1.4-0.2,2,0
	C9.1,9.6,9.7,9,10.5,9H14c0.3,0,0.5,0.2,0.5,0.5S14.3,10,14,10h-0.1c0.1,0.2,0.1,0.3,0.1,0.5v1c0,1.4-1.1,2.5-2.5,2.5S9,12.9,9,11.5
	v-0.1l-0.2-0.1c-0.5-0.2-1.1-0.2-1.6,0L7,11.4v0.1C7,12.9,5.9,14,4.5,14S2,12.9,2,11.5V10.5z M10.5,10h2c0.3,0,0.5,0.2,0.5,0.5v1
	c0,0.8-0.7,1.5-1.5,1.5S10,12.3,10,11.5v-1C10,10.2,10.2,10,10.5,10z"/>
</svg>
